<svg width="159" height="43" viewBox="0 0 159 43" fill="none" xmlns="http://www.w3.org/2000/svg">
<g clip-path="url(#clip0)">
<path d="M11.897 28.399C10.2336 28.399 9.1849 27.2674 9.1849 25.4788V12.2284H15.1153V7.51953H9.1849L9.22106 0H4.70093L3.83307 7.51953H0V12.2284H3.72459V25.6248C3.72459 30.2241 6.61747 33.3268 10.8845 33.3268C12.1501 33.3268 13.7412 33.0713 14.8983 32.6698L15.4769 32.4873V27.6324L14.3921 27.961C13.5965 28.253 12.4756 28.399 11.897 28.399Z" fill="white"/>
<path d="M30.9168 7.04498C28.7472 7.04498 26.6137 7.99405 25.1672 9.45415V7.48301H19.8516V32.4142H25.3119V19.0543C25.3119 14.9295 27.3369 12.1553 30.3744 12.1553C31.1338 12.1553 32.3994 12.3013 33.4843 12.7759L34.6414 13.2869V7.99405L34.2075 7.77503C33.3396 7.3005 32.1101 7.04498 30.9168 7.04498Z" fill="white"/>
<path d="M49.0346 6.57047C41.4769 6.57047 35.9805 12.0823 35.9805 19.6384C35.9805 27.5594 41.5493 33.3268 49.2154 33.3268C54.6396 33.3268 59.0874 30.7717 61.0762 26.5009L61.4378 25.7708L56.8454 23.4346L56.4476 24.1647C55.1096 26.6834 52.3976 28.2165 49.2877 28.2165C45.3823 28.2165 42.4533 25.8438 41.6577 22.084H61.8356L61.9079 21.3175C61.9441 20.77 61.9441 20.1859 61.9441 19.7114C61.9441 12.1189 56.5199 6.57047 49.0346 6.57047ZM48.8538 11.7173C52.4337 11.7173 55.182 13.7615 56.1222 17.0467H41.7662C42.6341 13.7615 45.3462 11.7173 48.8538 11.7173Z" fill="white"/>
<path d="M78.2514 6.57047C70.6937 6.57047 65.1973 12.0823 65.1973 19.6384C65.1973 27.5594 70.7661 33.3268 78.4322 33.3268C83.8563 33.3268 88.3042 30.7717 90.293 26.5009L90.6546 25.7708L86.0622 23.4346L85.6644 24.1647C84.3264 26.6834 81.6144 28.2165 78.5045 28.2165C74.5991 28.2165 71.6701 25.8438 70.8745 22.084H91.0524L91.1247 21.3175C91.1609 20.77 91.1609 20.1859 91.1609 19.7114C91.1609 12.1189 85.7367 6.57047 78.2514 6.57047ZM78.0706 11.7173C81.6505 11.7173 84.3988 13.7615 85.339 17.0467H70.983C71.8509 13.7615 74.563 11.7173 78.0706 11.7173Z" fill="white"/>
<path d="M109.062 6.57047C105.772 6.57047 102.987 7.73855 101.035 9.8922V7.48303H95.5742V43H101.035V30.0781C102.987 32.1953 105.808 33.3633 109.098 33.3633C116.331 33.3633 121.791 27.5959 121.791 19.9669C121.827 12.3379 116.331 6.57047 109.062 6.57047ZM116.367 19.9304C116.367 24.6392 113.076 28.2165 108.665 28.2165C104.253 28.2165 100.926 24.6757 100.926 19.9304C100.926 15.2216 104.253 11.7173 108.665 11.7173C113.112 11.7173 116.367 15.1851 116.367 19.9304Z" fill="white"/>
<path d="M143.161 27.3039H156.323V32.4142H132.529L152.418 7.5195H158.999L143.161 27.3039Z" fill="#FEBF43"/>
<g opacity="0.2">
<g opacity="0.2">
<mask id="mask0" style="mask-type:alpha" maskUnits="userSpaceOnUse" x="139" y="27" width="18" height="6">
<g opacity="0.2">
<g opacity="0.2">
<path opacity="0.2" d="M156.324 27.3039H139.328V32.4508H156.324V27.3039Z" fill="url(#paint0_linear)"/>
</g>
</g>
</mask>
<g mask="url(#mask0)">
<path opacity="0.2" d="M156.324 27.3039H139.328V32.4508H156.324V27.3039Z" fill="url(#paint1_linear)"/>
</g>
</g>
</g>
<path d="M138.967 12.6299H125.805V7.5195H149.599L129.71 32.4142H123.129L138.967 12.6299Z" fill="#FEBF43"/>
<g opacity="0.2">
<g opacity="0.2">
<mask id="mask1" style="mask-type:alpha" maskUnits="userSpaceOnUse" x="125" y="7" width="18" height="6">
<g opacity="0.2">
<g opacity="0.2">
<path opacity="0.2" d="M142.8 7.5195H125.805V12.6664H142.8V7.5195Z" fill="url(#paint2_linear)"/>
</g>
</g>
</mask>
<g mask="url(#mask1)">
<path opacity="0.2" d="M142.8 7.5195H125.805V12.6664H142.8V7.5195Z" fill="url(#paint3_linear)"/>
</g>
</g>
</g>
</g>
<defs>
<linearGradient id="paint0_linear" x1="139.296" y1="29.8665" x2="156.279" y2="29.8665" gradientUnits="userSpaceOnUse">
<stop stop-color="white"/>
<stop offset="1"/>
</linearGradient>
<linearGradient id="paint1_linear" x1="139.296" y1="29.8665" x2="156.279" y2="29.8665" gradientUnits="userSpaceOnUse">
<stop stop-color="#231F20"/>
<stop offset="1" stop-color="white"/>
</linearGradient>
<linearGradient id="paint2_linear" x1="142.84" y1="10.0591" x2="125.848" y2="10.0591" gradientUnits="userSpaceOnUse">
<stop stop-color="white"/>
<stop offset="1"/>
</linearGradient>
<linearGradient id="paint3_linear" x1="142.84" y1="10.0591" x2="125.848" y2="10.0591" gradientUnits="userSpaceOnUse">
<stop stop-color="#231F20"/>
<stop offset="1" stop-color="white"/>
</linearGradient>
<clipPath id="clip0">
<rect width="159" height="43" fill="white"/>
</clipPath>
</defs>
</svg>
