<svg width="31" height="31" viewBox="0 0 31 31" fill="none" xmlns="http://www.w3.org/2000/svg">
<circle cx="15.5" cy="15.5" r="15" transform="rotate(-90 15.5 15.5)" fill="#101010" stroke="#E6E6E6"/>
<g clip-path="url(#clip0_3831:1463)">
<path d="M21.8336 20.1787L21.8336 10.6787L22.9086 11.7079C23.0655 11.857 23.2784 11.9407 23.5003 11.9407C23.7222 11.9407 23.935 11.857 24.0919 11.7079C24.2489 11.5588 24.337 11.3566 24.337 11.1458C24.337 10.935 24.2489 10.7328 24.0919 10.5837L21.5919 8.20872C21.5145 8.13452 21.4223 8.07562 21.3208 8.03543C21.2192 7.99524 21.1103 7.97454 21.0003 7.97454C20.8903 7.97454 20.7813 7.99524 20.6798 8.03543C20.5782 8.07562 20.4861 8.13452 20.4086 8.20872L17.9086 10.5837C17.8305 10.6573 17.7685 10.7449 17.7262 10.8413C17.6839 10.9378 17.6621 11.0413 17.6621 11.1458C17.6621 11.2503 17.6839 11.3538 17.7262 11.4503C17.7685 11.5467 17.8305 11.6343 17.9086 11.7079C17.9861 11.7821 18.0782 11.841 18.1798 11.8812C18.2813 11.9214 18.3903 11.9421 18.5003 11.9421C18.6103 11.9421 18.7192 11.9214 18.8208 11.8812C18.9223 11.841 19.0145 11.7821 19.0919 11.7079L20.1669 10.6787L20.1669 20.1787C20.1703 20.3409 20.1399 20.5021 20.0776 20.6532C20.0153 20.8042 19.9223 20.9421 19.8039 21.059C19.6855 21.1759 19.544 21.2695 19.3876 21.3344C19.2311 21.3994 19.0627 21.4344 18.8919 21.4375L16.8336 21.4375C16.6126 21.4375 16.4006 21.5209 16.2444 21.6693C16.0881 21.8178 16.0003 22.0192 16.0003 22.2291C16.0003 22.4391 16.0881 22.6405 16.2444 22.7889C16.4006 22.9374 16.6126 23.0208 16.8336 23.0208L18.8919 23.0208C19.2815 23.0177 19.6667 22.9417 20.0253 22.7972C20.384 22.6527 20.7092 22.4425 20.9824 22.1786C21.2556 21.9146 21.4713 21.6022 21.6174 21.2591C21.7634 20.9159 21.8369 20.5488 21.8336 20.1787ZM14.0919 20.4162C14.2489 20.2671 14.337 20.065 14.337 19.8541C14.337 19.6433 14.2489 19.4411 14.0919 19.2921C13.935 19.143 13.7222 19.0592 13.5003 19.0592C13.2784 19.0592 13.0655 19.143 12.9086 19.2921L11.8336 20.3212L11.8336 10.8212C11.8303 10.659 11.8606 10.4978 11.9229 10.3468C11.9852 10.1957 12.0782 10.0578 12.1966 9.94092C12.315 9.82403 12.4565 9.73044 12.613 9.6655C12.7695 9.60057 12.9379 9.56556 13.1086 9.56247L15.1669 9.56247C15.388 9.56247 15.5999 9.47906 15.7562 9.33059C15.9125 9.18213 16.0003 8.98076 16.0003 8.7708C16.0003 8.56084 15.9125 8.35947 15.7562 8.21101C15.5999 8.06254 15.388 7.97913 15.1669 7.97913L13.1086 7.97913C12.719 7.98224 12.3339 8.05822 11.9752 8.20273C11.6165 8.34724 11.2913 8.55746 11.0181 8.82137C10.745 9.08529 10.5292 9.39773 10.3832 9.74086C10.2371 10.084 10.1636 10.4511 10.1669 10.8212L10.1669 20.3212L9.09194 19.2921C9.01447 19.2178 8.9223 19.159 8.82075 19.1188C8.71921 19.0786 8.61028 19.0579 8.50027 19.0579C8.39026 19.0579 8.28134 19.0786 8.17979 19.1188C8.07824 19.159 7.98608 19.2178 7.90861 19.2921C7.8305 19.3656 7.76851 19.4532 7.7262 19.5497C7.68389 19.6461 7.66211 19.7496 7.66211 19.8541C7.66211 19.9586 7.68389 20.0621 7.7262 20.1586C7.76851 20.2551 7.8305 20.3426 7.90861 20.4162L10.4086 22.7912C10.4861 22.8654 10.5782 22.9243 10.6798 22.9645C10.7813 23.0047 10.8903 23.0254 11.0003 23.0254C11.1103 23.0254 11.2192 23.0047 11.3208 22.9645C11.4223 22.9243 11.5145 22.8654 11.5919 22.7912L14.0919 20.4162Z" fill="white"/>
</g>
<defs>
<clipPath id="clip0_3831:1463">
<rect width="19" height="20" fill="white" transform="translate(6 25) rotate(-90)"/>
</clipPath>
</defs>
</svg>
